HIERARCHY
ROOT ui
{
	 OFFSET 0 0 0
	 CHANNELS 3 XPosition YPosition Z Position
	 EndSite
	 {
	 OFFSET 0 -1 0
	 }
}
ROOT li
{
	 OFFSET 0 0 0
	 CHANNELS 3 XPosition YPosition Z Position
	 EndSite
	 {
	 OFFSET 0 -1 0
	 }
}
ROOT ul
{
	 OFFSET 0 0 0
	 CHANNELS 3 XPosition YPosition Z Position
	 EndSite
	 {
	 OFFSET 0 -1 0
	 }
}
ROOT ll
{
	 OFFSET 0 0 0
	 CHANNELS 3 XPosition YPosition Z Position
	 EndSite
	 {
	 OFFSET 0 -1 0
	 }
}
ROOT tt
{
	 OFFSET 0 0 0
	 CHANNELS 3 XPosition YPosition Z Position
	 EndSite
	 {
	 OFFSET 0 -1 0
	 }
}
ROOT tb
{
	 OFFSET 0 0 0
	 CHANNELS 3 XPosition YPosition Z Position
	 EndSite
	 {
	 OFFSET 0 -1 0
	 }
}
ROOT td
{
	 OFFSET 0 0 0
	 CHANNELS 3 XPosition YPosition Z Position
	 EndSite
	 {
	 OFFSET 0 -1 0
	 }
}
ROOT v
{
	 OFFSET 0 0 0
	 CHANNELS 3 XPosition YPosition Z Position
	 EndSite
	 {
	 OFFSET 0 -1 0
	 }
}
ROOT bn
{
	 OFFSET 0 0 0
	 CHANNELS 3 XPosition YPosition Z Position
	 EndSite
	 {
	 OFFSET 0 -1 0
	 }
}
MOTION
Frames: 24
Frame Time: 0.002
-0.001600803017616272	0.0025880329608917235	0		0.43791351318359373	-2.3419375	0		-1.118783203125	0.20758657836914063	0		-0.503269287109375	-2.7675205078125	0		1.721731689453125	-0.3360931396484375	0		3.20090478515625	0.22480958557128905	0		4.64509912109375	0.15814837646484375	0		5.9145634765625	0.2710046997070312	0		-0.3240363159179688	5.91780419921875	0		
2.512499988079071E-4	-0.005198968887329102	0		0.46164651489257813	-2.347071044921875	0		-1.1237296142578126	0.2129750213623047	0		-0.5048214111328125	-2.790228759765625	0		1.71150439453125	-0.3478248291015625	0		3.240681884765625	0.21025871276855468	0		4.6417900390625	0.13811753845214844	0		5.91086572265625	0.2535467834472656	0		-0.3246368103027344	5.92008154296875	0		
2.2513400018215178E-4	-0.004941551208496093	0		0.43549044799804687	-2.343472900390625	0		-1.114624755859375	0.22118605041503905	0		-0.4914627380371094	-2.818132568359375	0		1.7453045654296875	-0.35818609619140623	0		3.230875244140625	0.22441561889648437	0		4.64873046875	0.13492535400390626	0		5.9103232421875	0.28611251831054685	0		-0.32324664306640627	5.91834912109375	0		
-0.0016775089502334595	0.0033586978912353515	0		0.43730892944335936	-2.341265869140625	0		-1.1055101318359375	0.22941770935058595	0		-0.5317512817382812	-2.820239013671875	0		1.7363011474609376	-0.3549263610839844	0		3.24782958984375	0.2211767578125	0		4.65383837890625	0.14274366760253906	0		5.91448876953125	0.2700246887207031	0		-0.260366455078125	5.94674365234375	0		
0.0032374460697174074	-0.001428468942642212	0		0.437091064453125	-2.34101904296875	0		-1.073431884765625	0.23433206176757812	0		-0.4614281005859375	-2.848941650390625	0		1.717114013671875	-0.3645152587890625	0		3.251924560546875	0.2271169128417969	0		4.6587216796875	0.13454692077636718	0		5.9181328125	0.2850556945800781	0		-0.28917303466796873	5.92547802734375	0		
-0.0047373251914978026	9.857710003852843E-4	0		0.45673175048828124	-2.35005615234375	0		-1.1114107666015625	0.23528887939453125	0		-0.5078132629394532	-2.855923583984375	0		1.716074951171875	-0.3643647155761719	0		3.25683740234375	0.22003584289550782	0		4.6546416015625	0.12846600341796874	0		5.9144619140625	0.2691632080078125	0		-0.32269137573242185	5.921302734375	0		
-0.004735284805297851	0.0012938129901885987	0		0.45650018310546875	-2.3497939453125	0		-1.10732666015625	0.23964720153808594	0		-0.4473534851074219	-2.873467041015625	0		1.7227882080078125	-0.3813294372558594	0		3.22296875	0.2275225372314453	0		4.6587451171875	0.134251220703125	0		5.91930908203125	0.24600794982910157	0		-0.2880307922363281	5.926138671875	0		
1.9914700090885163E-4	-0.003463112115859985	0		0.4470121154785156	-2.366388916015625	0		-1.0981739501953125	0.24794413757324218	0		-0.48907156372070315	-2.9014892578125	0		1.7186986083984375	-0.38513238525390625	0		3.236880859375	0.21929521179199218	0		4.65366455078125	0.12715744018554687	0		5.91513330078125	0.2629364318847656	0		-0.30534188842773435	5.9307529296875	0		
0.007321188926696778	0.003755063056945801	0		0.4528779907226563	-2.3592041015625	0		-1.0930694580078124	0.2523118133544922	0		-0.4554170837402344	-2.904622314453125	0		1.764549560546875	-0.3936846923828125	0		3.274083740234375	0.22971127319335938	0		4.66166552734375	0.12485691070556641	0		5.91513623046875	0.26238302612304687	0		-0.25546080017089845	5.94537255859375	0		
-0.0016344239711761474	0.005220440864562989	0		0.4407340393066406	-2.35274365234375	0		-1.1048758544921875	0.2619447631835938	0		-0.5018602600097656	-2.9135439453125	0		1.7484443359375	-0.3993091735839844	0		3.2651533203125	0.23081120300292968	0		4.66372216796875	0.12563516235351563	0		5.9128662109375	0.23939605712890624	0		-0.3049740295410156	5.9324892578125	0		
0.0033274168968200684	4.7902899980545045E-4	0		0.4702250366210938	-2.37091552734375	0		-1.1166539306640626	0.27258700561523436	0		-0.4325905456542969	-2.942216552734375	0		1.7453760986328124	-0.40312890625	0		3.241114013671875	0.22413848876953124	0		4.6545771484375	0.11257444763183594	0		5.9128818359375	0.2387994384765625	0		-0.3194080810546875	5.92308837890625	0		
3.300490081310272E-4	-0.0021396400928497313	0		0.46796823120117187	-2.372603515625	0		-1.1165740966796875	0.2730516357421875	0		-0.47700076293945315	-2.949154296875	0		1.746993408203125	-0.42802359008789065	0		3.2551865234375	0.22388323974609375	0		4.669513671875	0.10414105224609375	0		5.9129052734375	0.23819015502929688	0		-0.2552662811279297	5.9494892578125	0		
3.880009949207306E-4	-0.001806172013282776	0		0.46775128173828123	-2.372324462890625	0		-1.116484130859375	0.2735146179199219	0		-0.4267550048828125	-2.97955126953125	0		1.748846923828125	-0.43792242431640627	0		3.24536474609375	0.22999334716796874	0		4.66756884765625	0.10296416473388671	0		5.912935546875	0.23757652282714845	0		-0.2724541015625	5.954130859375	0		
0.0035016438961029055	0.0014755690097808837	0		0.4436276245117188	-2.366675537109375	0		-1.102199951171875	0.2857517700195312	0		-0.4552128601074219	-2.9907353515625	0		1.76172216796875	-0.44699560546875	0		3.2503486328125	0.22287310791015624	0		4.67561572265625	0.10063348388671875	0		5.9129716796875	0.23696847534179688	0		-0.23859893798828125	5.96097509765625	0		
5.307390093803406E-4	-0.0011555650234222413	0		0.49430648803710936	-2.375203369140625	0		-1.0681593017578126	0.2816634216308594	0		-0.42967929077148437	-3.003769287109375	0		1.7556229248046875	-0.4547757568359375	0		3.250449462890625	0.2228311004638672	0		4.67260888671875	0.09447982788085937	0		5.92014599609375	0.23610432434082032	0		-0.22368508911132812	5.9721025390625	0		
6.131340265274048E-4	-8.43500018119812E-4	0		0.46410479736328125	-2.3764697265625	0		-1.07988671875	0.2922793273925781	0		-0.438062255859375	-3.012283203125	0		1.8044288330078124	-0.46942620849609373	0		3.25933349609375	0.20865184020996094	0		4.67270166015625	0.09428764343261718	0		5.92802734375	0.2335035400390625	0		-0.23713020324707032	5.96166162109375	0		
-0.006409724235534668	-0.007431066989898681	0		0.5138302612304687	-2.38401220703125	0		-1.0797689208984376	0.2926906433105469	0		-0.43661892700195315	-3.032967041015625	0		1.7593626708984376	-0.47559457397460936	0		3.251475341796875	0.21074375915527344	0		4.673576171875	0.08009292602539063	0		5.92807958984375	0.23296270751953124	0		-0.23642906188964843	5.96198583984375	0		
7.923709750175476E-4	-2.568390071392059E-4	0		0.4348128662109375	-2.375511474609375	0		-1.1135804443359374	0.2976258850097656	0		-0.43988519287109373	-3.036589599609375	0		1.7971629638671875	-0.491085205078125	0		3.255474853515625	0.2036518096923828	0		4.67165966796875	0.07895832824707032	0		5.91317041015625	0.23477052307128907	0		-0.22061691284179688	5.97105419921875	0		
0.00393483304977417	0.002966444969177246	0		0.4636888427734375	-2.37574560546875	0		-1.108395263671875	0.3019176330566406	0		-0.46419094848632814	-3.04389013671875	0		1.758234375	-0.4893477478027344	0		3.278761962890625	0.2142576446533203	0		4.675857421875	0.08474272155761718	0		5.9254208984375	0.2442176513671875	0		-0.251107177734375	5.9638466796875	0		
0.00403167200088501	0.00322296404838562	0		0.4635875244140625	-2.37552734375	0		-1.0431201171875	0.3112133483886719	0		-0.4046147766113281	-3.060563720703125	0		1.779109375	-0.5005758666992187	0		3.25978173828125	0.2085496826171875	0		4.67186474609375	0.07867556762695313	0		5.91328955078125	0.23390150451660155	0		-0.21938832092285157	5.97162158203125	0		
-0.0019677040576934813	-0.002438317060470581	0		0.48538809204101563	-2.3826787109375	0		-1.086058837890625	0.3082327880859375	0		-0.4576610107421875	-3.05443115234375	0		1.7730555419921874	-0.5073713989257812	0		3.252716796875	0.19765882873535157	0		4.66808203125	0.08562664031982421	0		5.92831591796875	0.2312198486328125	0		-0.2519160003662109	5.967416015625	0		
-0.0018720779418945313	-0.0022149930000305174	0		0.45732635498046875	-2.382031005859375	0		-1.0587987060546875	0.31708737182617186	0		-0.40626876831054687	-3.085022216796875	0		1.7659873046875	-0.51515283203125	0		3.237827880859375	0.1979068603515625	0		4.657201171875	0.08671342468261718	0		5.913412109375	0.2332316436767578	0		-0.218339111328125	5.97211669921875	0		
-0.0017797160148620606	-0.002010283946990967	0		0.45727777099609374	-2.381853515625	0		-1.1305958251953125	0.3235340576171875	0		-0.4783001403808594	-3.080614013671875	0		1.7688685302734375	-0.5261005249023437	0		3.25293017578125	0.19767384338378907	0		4.66703564453125	0.07048043060302735	0		5.9153076171875	0.18791839599609375	0		-0.23579214477539062	5.97862841796875	0		
0.0013566930294036865	0.0011253819465637208	0		0.45927789306640626	-2.379724609375	0		-1.0545186767578125	0.3215270690917969	0		-0.44342190551757815	-3.0839794921875	0		1.7689296875	-0.52600439453125	0		3.2421279296875	0.20387515258789063	0		4.6563583984375	0.084609375	0		5.92271875	0.22030215454101562	0		-0.20232537841796874	5.9832822265625	0		
